<svg id="Layer_1" data-name="Layer 1" xmlns="http://www.w3.org/2000/svg" viewBox="0 0 500 500"><path d="M250,45A205,205,0,0,1,395,395,205,205,0,0,1,105,105,203.66,203.66,0,0,1,250,45m0-40C114.69,5,5,114.69,5,250S114.69,495,250,495,495,385.31,495,250,385.31,5,250,5Z"/><path d="M227.93,265.6q7.35,11.47,7.36,27.36,0,21.19-13.54,34.73T188.2,341.23q-21.18,0-34.72-13.54T139.94,293a80,80,0,0,1,2.65-20.6q2.66-10,10.3-30l31.19-83.58h47.09l-23.55,90A42.76,42.76,0,0,1,227.93,265.6Zm124.77,0q7.35,11.47,7.36,27.36,0,21.19-13.54,34.73T313,341.23q-21.18,0-34.72-13.54T264.71,293a80.48,80.48,0,0,1,2.65-20.6q2.65-10,10.3-30l31.2-83.58h47.08l-23.54,90A42.78,42.78,0,0,1,352.7,265.6Z"/></svg>