<svg id="Layer_1" data-name="Layer 1" xmlns="http://www.w3.org/2000/svg" viewBox="0 0 500 500"><path d="M175.14,231.29a55.15,55.15,0,0,0-18.71,3.45v-3.45a37.46,37.46,0,0,1,37.43-37.43,18.72,18.72,0,0,0,0-37.43A74.94,74.94,0,0,0,119,231.29v56.14a56.15,56.15,0,1,0,56.14-56.14Zm149.72,0a55.64,55.64,0,0,0-18.72,3.43v-3.43a37.46,37.46,0,0,1,37.43-37.43,18.72,18.72,0,1,0,0-37.43,74.94,74.94,0,0,0-74.86,74.86v56.14a56.15,56.15,0,1,0,56.15-56.14Z"/><path d="M250,45A205,205,0,0,1,395,395,205,205,0,0,1,105,105,203.66,203.66,0,0,1,250,45m0-40C114.69,5,5,114.69,5,250S114.69,495,250,495,495,385.31,495,250,385.31,5,250,5Z"/></svg>